<?xml version="1.0" encoding="UTF-8" standalone="no"?>
<svg width="22px" height="22px" viewBox="0 0 22 22" version="1.1" xmlns="http://www.w3.org/2000/svg" xmlns:xlink="http://www.w3.org/1999/xlink" xmlns:sketch="http://www.bohemiancoding.com/sketch/ns">
    <!-- Generator: Sketch 3.4.4 (17249) - http://www.bohemiancoding.com/sketch -->
    <title>76 - iPad (@1x)</title>
    <desc>Created with Sketch.</desc>
    <defs></defs>
    <g id="Page-1" stroke="none" stroke-width="1" fill="none" fill-rule="evenodd" sketch:type="MSPage">
        <g id="76---iPad-(@1x)" sketch:type="MSArtboardGroup" fill="#015FA5">
            <g id="Oval-14-+-i-Copy-2" sketch:type="MSLayerGroup" transform="translate(1.000000, 1.000000)">
                <path d="M10,19.5 C15.2467051,19.5 19.5,15.2467051 19.5,10 C19.5,4.75329488 15.2467051,0.5 10,0.5 C4.75329488,0.5 0.5,4.75329488 0.5,10 C0.5,15.2467051 4.75329488,19.5 10,19.5 L10,19.5 Z M10,18.5 C5.30557963,18.5 1.5,14.6944204 1.5,10 C1.5,5.30557963 5.30557963,1.5 10,1.5 C14.6944204,1.5 18.5,5.30557963 18.5,10 C18.5,14.6944204 14.6944204,18.5 10,18.5 L10,18.5 Z" id="Shape" sketch:type="MSShapeGroup"></path>
                <path d="M8.144,15 L12.496,15 L12.496,13.672 L11.888,13.672 C11.696,13.672 11.488,13.464 11.488,13.272 L11.488,7.496 C11.488,6.856 11.36,6.6 11.104,6.6 L8.08,6.6 L8.08,8.008 L8.752,8.008 C8.944,8.008 9.136,8.264 9.136,8.44 L9.136,13.272 C9.136,13.448 8.944,13.672 8.752,13.672 L8.144,13.672 L8.144,15 Z M10.288,5.944 C10.992,5.944 11.552,5.4 11.552,4.712 C11.552,4.024 10.992,3.464 10.288,3.464 C9.584,3.464 9.024,4.024 9.024,4.712 C9.024,5.4 9.584,5.944 10.288,5.944 L10.288,5.944 Z" id="i" sketch:type="MSShapeGroup"></path>
            </g>
        </g>
    </g>
</svg>