<?xml version="1.0" encoding="utf-8"?>
<!-- Generator: Adobe Illustrator 16.0.0, SVG Export Plug-In . SVG Version: 6.00 Build 0)  -->
<!DOCTYPE svg PUBLIC "-//W3C//DTD SVG 1.1//EN" "http://www.w3.org/Graphics/SVG/1.1/DTD/svg11.dtd">
<svg version="1.1" id="Layer_1" xmlns="http://www.w3.org/2000/svg" xmlns:xlink="http://www.w3.org/1999/xlink" x="0px" y="0px"
	 width="841.9px" height="595.3px" viewBox="0 0 841.9 595.3" enable-background="new 0 0 841.9 595.3" xml:space="preserve">
<g>
	<path d="M716.543,297.512L837.3,259.166l-102.447-49.22C729.13,126.389,659.312,60,574.033,60
		c-88.709,0-161.395,72.113-161.395,161.392c0,1.719,0,2.861,0,4.58c-6.869,9.728-14.308,18.312-21.177,26.897
		c-67.532,3.435-167.112,1.146-211.182-41.205c-56.086-53.798-31.478,88.709,78.409,135.07C125.91,395.381,0,333.567,0,333.567
		S89.855,536.74,365.708,536.74c204.319,0,281.011-124.188,307.336-188.295C691.358,333.567,705.667,316.967,716.543,297.512z
		 M608.942,139.551c25.185,0,45.786,20.604,45.786,45.786c0,25.181-20.602,45.785-45.786,45.785
		c-25.178,0-45.785-20.604-45.785-45.785C563.157,160.156,583.188,139.551,608.942,139.551z"/>
</g>
</svg>
