<?xml version="1.0" encoding="utf-8"?>
<!-- Generator: Adobe Illustrator 17.0.2, SVG Export Plug-In . SVG Version: 6.00 Build 0)  -->
<!DOCTYPE svg PUBLIC "-//W3C//DTD SVG 1.1//EN" "http://www.w3.org/Graphics/SVG/1.1/DTD/svg11.dtd">
<svg version="1.1" xmlns="http://www.w3.org/2000/svg" xmlns:xlink="http://www.w3.org/1999/xlink" x="0px" y="0px"
  width="275px" height="110px" viewBox="0 0 275 110" enable-background="new 0 0 275 110" xml:space="preserve">
<g class="DaytonaLogo">
  <path d="M274.067,30.701c0.218-0.435-0.364-0.757-0.512-1.126c-0.32,0.074-0.763,0.038-1.159,0.074
    c-0.362-0.434-0.691,0.217-1.092-0.036c-0.324,0.544-1.09,0.472-1.49,0.91c-0.87,0.178-1.596,0.691-2.397,1.088
    c-0.108,0.107-0.293,0.038-0.323-0.072c-0.586,0.617-1.456,0.871-2.184,1.305c-0.292,0.657-1.234,0.223-1.633,0.91
    c-0.257,0.657-0.907-0.219-1.201,0.436c-0.618,0.438-1.052,1.093-1.889,1.163c-0.585,0.325-1.129,0.765-1.709,1.165
    c-0.142,0.07-0.4,0.032-0.472-0.185c-0.074-1.199-0.367-2.434-0.254-3.703c0-0.761,0.18-1.528,0-2.217
    c0.433-0.839,0.034-1.819,0.18-2.689l0.18-0.292c-0.542-0.219-0.105-0.69-0.105-1.016c0.29-0.619,0.179-1.199,0.105-1.852
    c0-0.364,0.439-0.327,0.439-0.691c-0.396-0.581,0-1.416-0.366-2.034c0.151-0.51,0.111-1.129-0.289-1.6
    c-0.508-0.657-1.452-0.687-2.177-0.946c-0.261,0.073-0.621-0.219-0.841,0.073c-0.255-0.036-0.542,0.074-0.687-0.073
    c-0.146-0.219-0.799,0.073-0.512-0.4c0.113-0.727-0.253-1.122-0.5-1.709c-0.188,0-0.442,0-0.59-0.18
    c0.076,0,0.076-0.074,0.076-0.105c-0.218,0.321-0.618-0.076-0.946-0.04c-0.91-0.142-1.781-0.476-2.833-0.217
    c-0.368,0-0.729,0.508-1.088,0.217c0,0.219-0.328,0.184-0.439,0.438c-0.4,0.072-0.728,0.327-1.126,0.474
    c-0.436,0.578-1.201,0.251-1.746,0.759c-0.471,0.221-0.905,0.544-1.343,0.801c-0.507,0.329-1.199,0.363-1.674,0.836
    c-1.087,0.689-2.504,1.016-3.378,2.07c-0.359-0.506-0.763,0.147-1.197,0.147c-0.437,0.47-1.09,0.434-1.416,1.087
    c-0.365-0.36-0.618,0.293-0.984,0.11c-0.58,0-0.902,0.618-1.45,0.765c0,0.034-0.04,0.108,0.038,0.108c-0.435,0.36-0.909,0-1.31,0.51
    c-0.727-0.185-0.585,0.942-1.125,0.869c-0.332,0.327-0.874-0.215-1.165,0.364c-0.839-0.038-1.345,0.803-2.182,0.837
    c-0.763,0.179-1.09,1.087-1.964,0.978c-0.58,0.478-1.454,0.44-1.996,0.946c-0.691,0.221-1.307,0.725-2.002,1.014
    c-0.142,0.185-0.508-0.068-0.577,0.223c-0.182,0.689-1.056,0.179-1.345,0.797c-0.765,0.111-1.307,0.691-2.036,0.838
    c-0.219-0.396-0.18-0.871-0.036-1.271c0-0.434,0.255-0.91,0.108-1.418c0.4-0.289,0-0.585,0.183-0.98
    c0.07-0.108,0.251-0.149,0.251-0.257c-0.144-0.434,0.259-0.942,0.106-1.488c0.439-0.51-0.429-0.872-0.612-1.343
    c-0.219-0.221-0.58-0.221-0.835-0.402c-0.615-0.075-1.161,0.074-1.525-0.51c-0.908,0.038-1.818,0.149-2.621-0.074
    c-0.653,0.259-1.381,0.402-2.03,0.293c-0.402-0.034-0.145-0.329-0.295-0.58c0.767-0.114,0.225-0.765,0.402-1.165h-0.107
    c-0.438-0.655,0.615-1.199-0.07-1.779c0.764-1.197-1.056-1.163-1.457-2.105c-0.435-0.255-0.944,0.036-1.235-0.437
    c-0.728-0.255-1.199-0.038-1.96-0.038c-0.875-0.506-1.891,0.038-2.839-0.111c-0.179,0.294-0.504,0.111-0.833,0.149
    c-0.146,0.287-0.367,0-0.546,0.072c-0.546,0.365-1.42,0-2.068,0.11c-0.729,0.255-1.46,0.215-2.185,0.36
    c-0.434-0.215-0.759,0.402-1.159,0.185c-0.51,0.032-1.127,0.07-1.709,0.106c-0.291,0.111-0.51-0.291-0.727,0.036
    c-0.618,0.11-1.456,0.183-2.106,0.293c-0.364,0.144-0.803-0.183-1.093,0.144c-0.763-0.038-1.56,0.074-2.329,0.221
    c-0.904-0.147-1.883,0.178-2.867,0c-0.4,0.47-1.016,0.034-1.416,0.361c-0.186,0.255-0.325,0.038-0.582,0.038
    c-1.892,0.363-3.853,0.506-5.673,1.05c-0.614-0.287-1.265,0.332-1.998,0.296c-0.793,0.58-2.032,0.288-2.87,0.799l-0.106-0.11
    c-0.691,0.289-1.564,0.11-2.142,0.654c-1.783,0.074-3.346,0.693-4.948,1.199c-0.468,0.437-1.014,0-1.484,0.4
    c-1.127,0.251-2.036,1.016-3.201,1.197c-1.124,0.472-2.363,0.657-3.454,1.199c-0.215-0.038-0.289,0.363-0.578,0.255
    c-1.088,0.435-2.253,0.655-3.339,1.128c-0.914,0.801-2.111,0.872-3.129,1.453c-0.763-0.036-1.275,0.472-1.962,0.655
    c-0.4-0.399-0.472,0.287-0.872,0.251c-0.255,0.219-0.546,0-0.727-0.181c-0.145-0.217-0.145-0.436,0-0.652
    c-0.327-0.364,0.181-0.402,0.291-0.653c-0.034-0.257,0.036-0.547,0.145-0.799c0.182-0.327-0.145-0.327-0.291-0.546
    c0.835-0.476,1.054-1.527,1.054-2.506c0.434-0.514,0.695-1.201,0.58-1.856c0.365-0.292,0.437-0.693,0.437-1.127
    c0.259-0.909,0.623-1.777,0.623-2.725c0.14-0.068,0.363-0.144,0.435-0.327c-0.184-0.365,0.321-0.542,0.215-0.907
    c0.367-0.651,0.329-1.456,0.472-2.183c0.542-0.502,0.255-1.195,0.219-1.851c-0.398,0-0.255-0.546-0.691-0.472l-0.543-0.364
    c-1.092-0.072-2.145-1.129-3.271-0.435c-0.325,0.072-0.797,0.072-0.869,0.435c-0.729,0.873-0.076,1.999-0.657,2.98
    c0.109,0.582-0.508,1.128-0.292,1.709c-0.255,0.436-0.437,0.906-0.472,1.415c0,0.288-0.506,0.438-0.18,0.691
    c-0.327,0.325,0.108,0.797-0.362,1.054c0,1.345-0.838,2.364-0.872,3.634c-0.655,0.657-0.329,1.745-0.765,2.508
    c-0.327,0.183-0.07,0.398-0.217,0.615c-0.291,0.801-0.472,1.675-0.435,2.512c-0.765,0.582-0.619,1.634-1.056,2.396
    c-0.436-0.036-0.725,0.329-1.089,0.506c-0.656-0.07-0.983,0.655-1.637,0.581c-1.236,0.366-2.396,0.984-3.595,1.386
    c-0.473-0.042-0.871,0.653-1.274,0.215c-0.256,0.368-0.691,0.438-1.091,0.4c-0.144,0.327-0.579,0.651-0.579,1.125
    c0.29,0.251,0.326,0.656,0.727,0.801c-0.073,0.763,0.8,1.05,1.308,1.451c0.144,0.181,0.47,0.04,0.577,0.327
    c0.51-0.327,0.621,0.583,1.204,0.402c0.214-0.034,0.291,0.472,0.506,0.144c0.765,0.147,1.093-0.761,1.852-0.578
    c0.473-0.655,0.8,0.215,1.237,0.325c0.22,0.253,0.145,0.689-0.071,0.903c0.142,0.878-0.581,1.567-0.472,2.406
    c-0.144,0.691-0.257,1.414-0.401,2.143c-0.216,0.504,0.072,1.161-0.216,1.705c-0.041,0.653-0.148,1.307,0.251,1.817
    c0.075,0.727,0.909,0.944,1.274,1.494c0.509,0.068,0.905,0.578,1.379,0.578c0.546,0.436,1.271,0.07,1.89,0.289
    c0.325-0.179,0.726-0.36,0.797-0.834c-0.362-0.94,0.622-1.598,0.331-2.649c-0.293-0.325-0.181-0.765-0.331-1.128
    c0.186-0.691,0.363-1.49,0.149-2.217c0.436-0.181,0.398-0.727,0.327-1.089c0.253-0.147,0.072-0.293,0.109-0.472
    c0.397-0.402,0-0.91,0.363-1.277c0.219-0.215,0.181-0.651,0.034-0.865c0.476-0.329,0.185-0.873,0.402-1.347
    c0.289-0.725,0.544-1.526,0.437-2.36c0.29-0.51,1.016-0.44,1.161-1.024c0.729-0.1,1.6-0.285,1.964-1.052
    c0.398,0.11,0.436-0.434,0.759-0.292c0.695,0.402,0.803-0.616,1.382-0.578c0.62-0.108,1.165-0.108,1.743-0.148
    c0.4-0.398,1.054-0.104,1.456-0.508c0.508-0.108,0.98-0.219,1.376-0.58c0.803,0.291,0.733-0.763,1.526-0.398
    c0.329-0.583,1.096-0.438,1.458-0.874c0.653-0.108,0.978-0.873,1.707-0.835c0.182-0.038,0.436,0.038,0.548-0.181
    c0.072-0.437,0.542-0.4,0.869-0.474c0.181,0.366,0.4-0.181,0.688-0.072c0.481-0.398,1.205-0.512,1.748-0.727
    c0.11-0.217,0.325-0.253,0.548-0.327c0.049,0,0.102,0,0.113,0.028c0.034-0.41,0.547-0.251,0.752-0.463
    c0.988,0.291,1.858-0.512,2.836-0.653c0.396-0.404,1.092-0.292,1.602-0.44c0.468-0.542,1.273-0.4,1.888-0.614
    c0.51-0.618,1.016,0.327,1.564-0.183c0.547,0.107,0.793-0.725,1.311-0.4c-0.08-0.364,0.363-0.219,0.468-0.51l0.109,0.074
    c0,0.763-0.91,1.019-0.872,1.745c-0.038,0.365-0.582,0.582-0.329,0.946c-0.578,0.436-0.397,1.377-1.126,1.67
    c-0.038,0.074,0.075,0.109,0.075,0.143c0.072,0.181,0.109,0.438-0.038,0.584c-0.076,0.616-0.257,1.233-0.293,1.816
    c-0.578,0.184-0.251,0.689-0.402,1.092c-0.321,0.689-0.249,1.528-0.578,2.211c0.147,0.691-0.034,1.276,0,1.932
    c0.363,0.285,0.181,0.942,0.767,1.088c0.178,0.47,0.469,0.799,0.867,1.089c0.547,0.182,0.833,0.909,1.527,0.656
    c0.472-0.072,0.55,0.615,1.088,0.287c0.548,0,1.092,0.257,1.598,0.11c0.219,0.219,0.62,0.111,0.875,0.074
    c0.474-0.584,1.42-0.404,1.637-1.158c0.472-0.111,0.578-0.657,1.088-0.693c0-0.107,0-0.219-0.076-0.291
    c0.661-0.765,1.643-1.052,2.292-1.817c0.291-0.693,0.727-1.129,1.167-1.785c0.14-0.285,0.431-0.544,0.759-0.615
    c0.109-0.184,0.582-0.253,0.287-0.58c0.512-0.327,0.914-1.018,1.496-1.382c0.068-0.47,0.325-0.908,0.616-1.271
    c-0.034-0.474,0.257-0.838,0.329-1.307c-0.147-0.91,0.583-2.183-0.438-2.91c-0.506-0.215-0.944-0.944-1.562-0.468
    c-0.105-0.402,0.366-0.875,0.072-1.38c0.217-0.295-0.177-0.512-0.217-0.801c0.548-0.185,1.092-0.074,1.634-0.111
    c0.44-0.399,1.205-0.257,1.565-0.765c0.618,0.149,1.056-0.506,1.669-0.142c0.436,0.4,0.181-0.325,0.546-0.4
    c0.544,0.472,1.311,0.036,1.853,0c0.438,0,0.876-0.325,1.237-0.217c0.472-0.583,1.05,0.034,1.6-0.327
    c0.578,0.145,1.056,0.034,1.635-0.074c0.251-0.149,0.472-0.325,0.797-0.293c0.329-0.361,0.944,0.143,1.195-0.251
    c0.372-0.039,0.914,0,1.314,0.111c0.285-0.076,0.504-0.33,0.725-0.516l0.108,0.147c0.617-0.147,1.237,0.292,1.855-0.076
    c0.185-0.542,0.761-0.178,1.161-0.291c0.329,0.187,0.62,0.044,0.909,0.257c0.035,0.546,0.33,1.203-0.034,1.669
    c-0.183,0.221,0.143,0.512-0.146,0.693c0.111,0.51-0.221,0.948-0.221,1.49c-0.471,0.546-0.397,1.275-0.724,1.854
    c-0.292,0.946-0.616,1.851-1.161,2.689c0.253,0.801-0.874,1.343-0.441,2.105c-0.799,0.291-0.98,1.129-1.233,1.745
    c-0.474,0.578-0.655,1.268-0.836,1.922c-0.433,0.442-0.363,1.057-0.548,1.566c0.474,0.436,0.402,1.343,1.203,1.309
    c0.91,0.761,1.926,1.129,2.978,1.488c0.582-0.144,1.093-0.616,1.311-1.162c0.285-0.292,0.472-0.799,0.689-1.199
    c-0.107-0.614,0.582-0.978,0.799-1.56c0.22-0.442,0.948-0.622,0.728-1.201c0.034-0.47,0.472-0.618,0.725-0.835
    c0.038-0.508,0.51-0.617,0.582-1.091c0.04-0.871,0.874-1.127,0.839-2.001c0.506-0.359,0.902-1.269,1.814-0.976
    c0.036-0.074,0.105-0.149,0.219-0.109c0.508,0.07,0.508,0.617,0.473,1.086c-0.18,0.04,0.035,0.478-0.291,0.37
    c0.034,0.54-0.251,0.941-0.221,1.45c-0.074,0.215-0.18,0.434-0.252,0.619c-0.364,0.976-0.91,2.217-1.016,3.378
    c-0.145,0.727-0.113,1.6,0.142,2.359c0.51,0.4,0.475,1.275,1.201,1.492c0.217,0.691,1.163,0.253,1.45,0.873
    c0.623,0.183,1.309-0.036,1.747-0.474c0.87,0.038,0.906-1.089,1.565-1.303c0.068-0.801,0.977-0.729,1.343-1.311
    c-0.036-0.365,0.362-0.474,0.58-0.657c0.579,0.074,0.692-0.618,1.089-0.833c0.327-0.253,1.021-0.329,0.948-0.875
    c0.653-0.181-0.075-0.759,0.398-0.944c0.763,0.034,1.524-0.361,1.891-1.016c0.145,0,0.324-0.036,0.47,0.036
    c0.436-0.221,0.909-0.291,1.341-0.438c0.151-0.4,0.73-0.436,1.021-0.761c0.254-0.217,0.798-0.18,0.766-0.622
    c0.251-0.177,0.508-0.325,0.832-0.251c0.145-0.4,0.762-0.074,0.801-0.616c0.833-0.183,1.49-0.874,2.395-0.986
    c0.873-0.07,1.494-0.976,2.368-0.976c-0.15-0.657,0.616-0.293,0.871-0.585c-0.04-0.215-0.04-0.433,0.146-0.546
    c0.833-0.289,1.671-0.47,2.394-0.944c0.071-0.727,0.948,0.042,1.236-0.47c0.509,0.07,0.473-0.399,0.944-0.399
    c0.327-0.402,0.91-0.221,1.201-0.655c0.618,0.106,0.982-0.546,1.305-0.98l-0.105-0.108c0.218-0.111,0.293-0.438,0.544-0.364
    c-0.032,0.364-0.474,0.58-0.326,0.976c-0.584,0.552-0.732,1.418-1.092,2.149c-0.146,0.251-0.182,0.763-0.542,0.687
    c0.142,0.293,0,0.582-0.109,0.837c-0.147,0.691-0.402,1.418-0.582,2.144c-0.182,0.113,0.107,0.291-0.107,0.4
    c0.107,0.654-0.476,0.944-0.621,1.528c0.219,0.542-0.365,1.195-0.148,1.849c0.217,0.554,0.73,0.837,0.769,1.458
    c0.178,0.182,0.36,0.583,0.689,0.504c0.287,0.549,0.983,0.364,1.269,0.84c0.693,0.179,1.312,0.725,2.073,0.581v0.07l0.325,0.036
    c0.293,0.289,0.729,0.364,1.131,0.257c0.505-0.327,1.124,0,1.632-0.435c0.437-0.149,0.504-0.617,0.765-0.946
    c1.086-0.255,1.086-1.53,1.964-2.038c0.796-1.088,1.377-2.361,2.287-3.379c-0.073-0.613,0.686-0.834,0.942-1.269
    c-0.071-0.55,0.546-0.841,0.908-1.02c0.255,0.727,0.111,1.488,0.145,2.253c-0.107,0.725,0.218,1.378,0.034,2.145
    c0.362,0.182-0.142,0.616,0.261,0.726c-0.149,0.801,0.253,1.56,0.36,2.36c0.287,0.476,0.287,1.056,0.508,1.528
    c0.62,0.438,0.654,1.309,1.379,1.673c-0.178,0.797,0.874,0.468,1.167,1.016c0.546,0,0.908,0.542,1.349,0.727
    c0.54,0.367,1.084-0.364,1.63,0c0.404-0.075,0.948,0.327,1.199-0.185c-0.072-0.578,0.583-0.251,0.801-0.655
    c0.181-0.614,0.836-0.831,1.38-1.122c0.034-0.655,0.871-0.396,0.906-1.016c0.222-0.223,0.331-0.51,0.655-0.51
    c0.548-0.765,1.49-0.474,2.074-1.163c0.249-0.184,0.651-0.219,0.834-0.476c0.835-0.795,2.03-0.907,2.799-1.92
    c0.142-0.113,0.431,0.032,0.431-0.221c0.697-0.036,0.619-0.725,1.171-0.98c0.142-0.109,0.357,0,0.433,0.109
    c0.109,0,0.109-0.181,0.144-0.293c0.548-0.215,1.235-0.4,1.456-1.018c0.253-0.144,0.326,0.293,0.504,0.185
    c0.04-0.219-0.032-0.364-0.071-0.547c0.071-0.076,0.111-0.18,0.219-0.144c0.801-0.108,0.073-0.91,0.295-1.341
    c0.322-0.078,0.579,0.107,0.872,0C274.936,30.559,274.105,31.394,274.067,30.701z M182.57,26.999
    c-0.144-0.149-0.072,0.108-0.217,0.072c0.47,0.69-0.474,1.09-0.255,1.745c-0.616,0.508-0.321,1.488-1.163,1.816
    c-0.51,0.032-0.434,0.653-0.8,0.867c-0.254,0.767-1.16,1.201-1.451,2.001c-0.075,0.873-0.982,0.942-1.311,1.633
    c-0.329,0.184-0.759,0.44-1.235,0.293c-0.504-0.548-0.217-1.38,0.04-1.926c0.217-0.508,0.436-1.091,0.504-1.56
    c0.362-0.441,0.221-1.093,0.619-1.492c0.287-0.618,0.654-1.199,1.054-1.743c0.51-0.617,0.291-1.964,1.382-1.89
    c0.438-0.294,0.872-0.147,1.345-0.325c0.148-0.036,0.257,0.03,0.289,0.142v0.109c0.292-0.179,0.767-0.144,1.127,0.074
    C182.535,26.886,182.607,26.923,182.57,26.999z M248.815,23.728c0,0.508-0.144,1.162-0.074,1.708c-0.109,0-0.186,0.143-0.29,0.219
    c0.29,0.542-0.293,0.979-0.293,1.558c-0.218,0.366-0.107,0.84-0.437,1.128c-0.18,0.801-0.833,1.456-1.161,2.183
    c-0.763,0.871-1.195,1.887-2.038,2.578c-0.253,0-0.253,0.289-0.36,0.472c-0.4,0.366-0.767,0.729-1.203,1.02
    c-0.538-0.149-0.87-0.181-1.122-0.767c0.471-0.398,0.291-1.091,0.835-1.526c0.072-0.833,0.767-1.416,1.056-2.175
    c0.359-0.695,1.052-1.241,1.128-2.072c0.251-0.072,0.51-0.364,0.651-0.621c-0.142-0.253,0.221-0.146,0.221-0.361
    c0.612-0.689,0.944-1.492,1.56-2.107c0.398-0.293,0.398-0.876,0.909-1.056c0.476-0.107,0.725-1.163,1.199-0.398
    C249.211,23.655,249.066,23.8,248.815,23.728z"/>
  <path d="M126.068,40.987c-0.22-0.549,0.07-1.125-0.072-1.707c-0.472-0.51,0.143-1.201-0.148-1.673
    c-0.111-0.616-0.288-1.237-0.51-1.817c-0.287-0.215-0.579-0.506-0.943-0.545c-0.542-0.616-1.125,0.04-1.817-0.217
    c-0.942-0.472-1.781,0.107-2.76,0.257c-0.075,0.835-0.621,1.417-1.163,1.96c-0.256,0.761-0.801,1.052-1.237,1.779
    c-0.144,0.727-0.945,0.944-1.017,1.709c-0.364,0.582-1.018,0.763-1.308,1.38c-0.292,0.544-0.474,1.125-0.944,1.524
    c-0.62,0.514-1.165,1.239-1.417,1.962c-0.437,0.512-0.835,0.982-1.458,1.276c-0.072-0.804-0.25-1.928,0.186-2.725
    c0.801-0.619-0.258-1.345,0.398-2.038c0.437-0.436,0.761-0.982,0.946-1.598c0.689-1.203,0.398-2.47,0.107-3.745
    c0.186-0.182,0.186-0.437,0.144-0.651c0.511-0.329-0.034-0.801,0.147-1.203c0-0.689-0.726-1.231-1.306-1.45
    c-0.509-0.146-0.945-0.548-1.564-0.437c-0.255-0.362-0.655-0.398-1.017-0.219c-0.257-0.363-0.693-0.11-1.055-0.18
    c-0.397,0.213-0.874,0.287-0.981,0.835c-0.038,1.45-0.253,2.868-0.654,4.179c-0.509,1.052-1.343,0-2.107,0.215
    c-0.69,0.219-1.488,0.04-2.181,0.437c-0.507,0.257-1.234,0.04-1.742,0.327c-0.693,0.111-1.128,0.583-1.781,0.765
    c-0.545,0.908-1.455,0.435-2,1.309c-0.217,0.909-1.418,0.472-1.78,1.384c-0.399,0.253-0.512,0.576-0.946,0.759
    c-0.035,0.653-0.835,0.618-1.161,1.016c-0.438,0.327-0.762,0.727-1.125,1.091c-0.438-0.034-0.367,0.548-0.764,0.548
    c-0.329,0.255-0.365,0.757-0.766,0.871c-0.435,0.215-0.794,0.944-1.271,0.619c-0.038-1.018-0.253-2.109-0.071-3.129
    c-0.253-0.765,0.511-2.251-0.762-2.323c-0.292-0.143,0.035-0.329-0.076-0.546c-0.216-0.364-0.689-0.327-1.017-0.51
    c-0.327-0.727-1.159-0.544-1.672-1.014c-0.58-0.368,0.291-0.693,0.223-1.127c0.435-0.512,0.469-1.386,0.106-2.002
    c-0.364,0-0.439-0.398-0.543-0.615c-0.657-0.186-1.202-0.474-1.711-0.909c-0.256,0-0.472-0.074-0.69-0.217
    c-0.146-0.402-0.548-0.149-0.837-0.366c-0.76-0.327-1.485,0.291-2.179-0.036c-0.361,0.474-0.907,0.074-1.344,0.293
    c-0.215-0.436-0.58-0.257-0.982-0.219c-0.328,0.328-0.615,0.179-1.051,0.147c-1.165,0.504-2.507,0.181-3.637,0.797
    c-1.232,0.185-2.289,0.799-3.561,0.878c-0.324,0.684-1.124,0.1-1.631,0.464c-0.403,0.693-1.274,0.078-1.749,0.693
    c-0.653-0.034-1.127,0.4-1.743,0.4c-0.62,0.652-1.528,0.759-2.361,0.726c-0.729,0.91-2.071,0.145-2.761,1.201
    c-0.474-0.325-0.51,0.291-0.91,0.363c-0.363-0.144-0.8,0.111-1.091,0.291c-0.142,0.04-0.402,0.071-0.508-0.072
    c-0.438,0.215-0.98,0.253-1.27,0.651c-0.183,0.148-0.291-0.034-0.367-0.143c-0.214,0.072-0.323,0.219-0.472,0.434
    c-0.837-0.177-1.161,0.801-1.995,0.765c-0.293,0.544-0.946,0.364-1.349,0.688c-0.032,0.258-0.253,0.442-0.544,0.364
    c-0.397,0.691-1.305,0.253-1.667,0.91c-0.33,0.144-0.656,0.144-0.983,0c-0.477,0.506-1.417,0.4-1.854,1.054
    c-0.073-0.074-0.147-0.074-0.215-0.145c-0.291,0.253-0.95,0.183-0.802,0.765c-0.401,0.104-0.764,0.104-1.236,0.178
    c-0.511,0.149-0.838,0.908-1.417,0.729c-0.223,0.508-0.728,0.293-1.09,0.398C40.568,47.782,39.51,48,38.64,48.507
    c-0.178,0.036-0.58-0.11-0.723,0.109c-0.656-0.251-0.98,0.472-1.532,0.472c-0.032,0.434-0.396,0.072-0.579,0.364
    c-0.143,0.034-0.256-0.038-0.401-0.072c-0.178,0.578-0.904,0.178-1.015,0.799c-0.326-0.105-0.655,0.654-0.763,0.072
    c0.035-0.219,0.223-0.472,0.472-0.396c0.29-0.474,0.982-0.44,1.093-1.019c0.506,0,0.358-0.654,0.54-0.981
    c0.148-0.215,0.621-0.292,0.436-0.655c0.253,0.038,0.546-0.107,0.69-0.325c-0.324-1.276,1.781-1.38,1.673-2.474
    c0.763-0.145,0.542-1.018,0.977-1.453c0.803,0,0.584-0.869,0.875-1.344c0.327-0.215,0.217-0.725,0.654-0.801
    c-0.106-0.614,0.907-0.651,0.652-1.341c0.255-0.51,0.326-1.203,0.989-1.492c-0.225-0.761,0.467-1.271,0.65-1.964
    c0.726-0.58,0.505-1.633,0.979-2.323c0.111-0.219,0.182-0.617-0.038-0.801c-0.107-0.691,0.692-1.089,0.474-1.892
    c0.437-0.976-0.4-1.851-0.109-2.723c0.834-0.287-0.145-1.09-0.074-1.635c0.039-0.111,0.183-0.178,0.292-0.217
    c-0.144-0.946-0.108-1.926-0.544-2.834c-0.583-0.946-0.948-2.034-1.197-3.125c-0.291-0.255-0.548-0.653-0.873-0.727
    c0-0.177,0.214-0.327,0.252-0.436c-0.364-0.251,0.073-0.652-0.397-0.871c-0.218-0.837-0.948-1.38-1.311-2.148
    c-0.288-0.834-1.631-0.685-1.381-1.669c-0.871-0.908-1.818-2.069-2.903-2.691c-0.437,0-0.584-0.504-1.021-0.504
    c-0.111-0.982-1.195-0.657-1.67-1.273c-0.327-0.436-0.946-0.436-1.346-0.801c-0.762,0.04-1.089-1.09-1.923-0.725
    c-0.294-0.291-0.836-0.149-1.054-0.58c-0.763,0.431-1.164-0.476-1.928-0.329c-0.4-0.294-1.019-0.187-1.523-0.294
    c-0.15-0.213-0.401-0.397-0.691-0.253c-0.734-0.363-1.491,0-2.218-0.181c-0.437,0.181-0.983,0.071-1.344-0.104
    c-0.074-0.183,0-0.44,0.178-0.583c0.438-0.185,0.328-0.729,0.765-0.982c0.185-0.763,0.837-1.197,1.053-1.891
    c0.44-0.473-0.111-0.944-0.18-1.378c-0.219-0.295-0.511-0.657-0.84-0.619c-0.177-0.074-0.36-0.258-0.434-0.436
    C21.528,0.401,20.653,0.11,19.673,0c-0.181,0.11-0.288,0.29-0.507,0.327c-0.508,0.726-1.452,1.271-1.525,2.213
    c-0.728,1.202-1.456,2.471-1.707,3.928c-0.585,0.651-0.474,1.6-0.802,2.361c-0.509,0.765-0.399,1.779-0.907,2.581
    c-0.072,1.016-0.654,1.815-1.165,2.65c-0.107,0.872-0.687,1.529-0.873,2.36c-0.292,0.912-0.69,1.785-0.833,2.763
    c-0.656,0.51,0.033,1.492-0.723,1.924c-0.152,1.496-0.842,2.765-0.767,4.362c-0.619,0.689-0.543,1.709-0.728,2.542
    c0,0.149-0.367,0.295-0.105,0.478c-0.11,0.58-0.294,1.159-0.294,1.741c-0.545,0.544-0.181,1.269-0.471,1.926
    c-0.578,0.363,0.33,0.578,0.036,0.982c-0.689,0.219-0.256,1.088-0.723,1.49c0.142,0.655-0.551,1.233,0,1.817
    c0.142,0.325-0.257,0.325-0.401,0.504c-0.15,0.185,0.035,0.368,0.035,0.546c-0.327,0.476-0.436,1.127-0.436,1.785
    c-0.15,0.433-0.291,0.91,0,1.309c-0.657,0.329-0.182,1.193-0.583,1.598c-0.037,0.548-0.218,0.946-0.251,1.563
    C5.829,44.509,5.176,45.2,5.54,46c-0.399,0.761-0.691,1.741-0.439,2.616c-0.576,0.51-0.068,1.488-0.435,2.106
    c-0.036,0.147-0.257,0.293-0.142,0.438c0.216,0.329-0.223,0.618-0.329,0.911c0,0.869-0.328,1.707-0.221,2.58
    c-0.292,0.217-0.142,0.508-0.107,0.832c-0.582,0.801-0.405,1.962-0.511,2.908c0.075,0.727-0.508,1.273-0.144,1.96
    c-0.109,0.113-0.219,0.185-0.331,0.257c0.111,0.653-0.253,1.235-0.105,1.892c-0.036,1.267-0.728,2.538-0.363,3.883
    c-0.4,1.058,0.035,2.183-0.222,3.307L1.58,70.384c-0.623,0.215-1.13,0.761-1.493,1.307c-0.214,0.399,0.036,0.835,0.219,1.157
    c0.618,0.801,1.167,1.71,2.184,1.858c0.432,0.287,0.904,0.578,1.3,0.763c0.333-0.108,0.585,0.107,0.841-0.038
    c0.036-0.544,0.762-0.147,1.017-0.506c0.581-0.289,1.273,0.068,1.779-0.474c0.326-0.548,0.693-1.162,0.837-1.819
    c0.439-0.43,1.056-0.832,1.562-1.233c0-0.689,0.871-0.294,0.871-0.982c0.948-0.544,1.709-1.42,2.69-1.96
    c0.11-0.617,0.91-0.476,1.054-0.984c0.69-0.291,1.09-0.871,1.857-1.014c0.285-0.622,0.865-0.763,1.415-0.944
    c0.323-0.151,0.546-0.329,0.578-0.729c0.508-0.434,1.381-0.434,1.709-1.162c0.582-0.476,1.601-0.221,1.887-1.091
    c0.803,0.183,0.912-0.871,1.675-0.799c0.506-0.436,0.979-0.691,1.487-1.165c0.585,0.077,1.053-0.253,1.49-0.689
    c0.474-0.181,0.766-0.582,1.346-0.618c0.546-0.038,0.471-0.651,0.943-0.801c0.436-0.072,0.728-0.508,1.237-0.545
    c0.216-0.032,0.258-0.544,0.546-0.365c0.327-0.066,0.728-0.032,0.797-0.434c0.291-0.07,0.658-0.142,0.907-0.435
    c0.29-0.655,1.166-0.294,1.566-0.763c0.65-0.11,1.198-0.472,1.743-0.763c0.617-0.327,1.197-0.693,1.851-0.984
    c0.039-0.177,0.293-0.431,0.474-0.51c0.4,0.079,0.437-0.395,0.727-0.325c0.363-0.11,0.982,0.036,1.199-0.4
    c0.798,0.219,0.873-0.725,1.636-0.58c0.143-0.328,0.649-0.181,0.727-0.582c0.144-0.07,0.252,0.072,0.362,0.072
    c0.291-0.072,0.51-0.291,0.654-0.51c0.29,0.109,0.435-0.325,0.65-0.07c0.62-0.548,1.494-0.47,2.074-1.09
    c0.401-0.29,1.018-0.221,1.381-0.727c0.437,0.07,0.728-0.472,1.2-0.472c0.583,0.072,0.619-0.944,1.307-0.474
    c0.217-0.036,0.33-0.217,0.33-0.435c0.763,0.036,1.087-0.801,1.887-0.62c0.292-0.071,0.764-0.109,0.833-0.543
    c0.803,0.219,1.131-0.544,1.857-0.508c0.546-0.689,1.597-0.434,2.07-1.163l0.072,0.109l0.184-0.255
    c0.364,0.181,0.472-0.362,0.839-0.146c0.323-0.146,0.795-0.183,1.014-0.47c0.252-0.075,0.507-0.4,0.762-0.221
    c0.255-0.363,0.727-0.291,0.909-0.69c0.507,0.51,0.797-0.402,1.346-0.036c0.401,0,0.687-0.293,1.053-0.219
    c0.506-0.689,1.343-0.578,1.999-0.978c0.797-0.329,1.67-0.221,2.433-0.438c0.468-0.436,1.164-0.4,1.707-0.474
    c0.364-0.291,0.655-0.404,1.091-0.47c0.148-0.688,1.015-0.291,1.452-0.437c0.257,0.502-0.328,0.689-0.58,1.09
    c-0.765,0.476-1.419,1.235-1.927,1.998c-0.723,0.436-0.907,1.127-1.416,1.707c-0.18,0.657-0.799,1.091-1.056,1.707
    c-0.433,1.02-1.054,1.964-1.303,3.058c-0.294,0.648-0.585,1.375-0.474,2.066c-0.511,0.876-0.365,1.922-0.327,2.908
    c0.215,0.4,0.033,0.98,0.434,1.309c0.255,0.649,0.508,1.415,1.168,1.777c0.215,0.514,0.904,0.801,1.3,1.309
    c1.126,0.257,1.928,1.524,3.202,1.309c0-0.104,0.034-0.144,0.071-0.215c0.362-0.219,0.764,0.111,1.128,0.253
    c0.398-0.51,1.053-0.107,1.56-0.361c0.294-0.111,0.328-0.404,0.509-0.653l0.4,0.145c0.252,0.072,0.185-0.221,0.328-0.292
    c0.435,0,0.689-0.51,1.123-0.584c0.146-0.325,0.439-0.325,0.618-0.618c0.439,0,0.216-0.801,0.802-0.618l1.309-1.233
    c0.29-0.259,0.361-0.655,0.762-0.801c0.112-0.727,1.235-0.803,1.196-1.713c0.258-0.359,0.547-0.905,1.055-0.975
    c0.439-0.729,1.273-1.344,1.456-2.181c0.105-0.185,0.47-0.146,0.434-0.44c0.144-0.434,0.946-0.729,0.545-1.16
    c0.037-0.109,0.184-0.327,0.363-0.255c1.095,1.345,2.545,2.036,3.782,3.088c0.688,0.074,1.417,0.619,2.142,0.398
    c0.292,0.438,0.837,0.221,1.236,0.144c0.256-0.542,0.984-0.323,1.38-0.688c0.111-0.217,0.217-0.436,0.473-0.398
    c1.02-0.727,1.634-1.671,2.541-2.362c0.113-0.763,1.092-0.799,1.309-1.345c0.585-0.25,0.874-0.651,1.201-1.195
    c0.327-0.15,0.545-0.623,0.871-0.512c0.908-1.269,2.509-1.781,3.854-2.396c-0.219-1.092,0.943-0.183,1.236-0.837
    c0.217-0.109,0.253,0.215,0.436,0.215l0.29-0.287c0.147-0.038,0.219,0.034,0.29,0.111c-0.035,1.775,0.075,3.739,0.292,5.518
    c0.29,0.362,0.146,0.908,0.29,1.348c0.436,0.357,0.218,1.014,0.693,1.375c0.071,0.765,0.76,1.129,1.307,1.567
    c1.052,0.036,1.562,1.305,2.725,1.235c0.071,0.395,0.508,0.108,0.727,0.253c0.437-0.438,1.124-0.183,1.562-0.621
    c0.472-0.725,1.561-0.648,1.779-1.594c0.548,0,0.873-0.582,1.236-0.873c0.147-0.215-0.144-0.476,0.184-0.657
    c0.436,0.042,0.287-0.582,0.726-0.582c0.146-0.367,0.471-0.688,0.654-0.979c0-0.655,0.798-1.016,1.235-1.456
    c0.545-0.253,0.289-1.16,0.906-1.343c0.037,0.07,0.15,0.109,0.15,0.183c-0.298,0.362-0.04,0.873,0.067,1.309
    c-0.436,1.598-0.397,3.486-0.507,5.085c-0.256,0.51-0.071,1.199-0.328,1.706c0.072,0.619-0.289,1.129-0.182,1.741
    c-0.253,0.623-0.035,1.28-0.288,1.896c-0.109,0.4,0.07,0.799-0.179,1.161c0.143,0.437-0.259,0.761-0.111,1.273
    c-0.51,0.363-0.075,0.94-0.437,1.341c0.325,0.731-0.327,1.459-0.074,2.181c-0.362,0.332,0.035,0.729-0.146,1.091
    c0.22,0.291-0.18,0.58-0.216,0.873c-0.217,0.51-0.147,1.09-0.398,1.563c-0.221,0.98-0.078,1.962-0.621,2.799l0.293,0.689
    c-0.075,0.179-0.258,0.291-0.258,0.47c-0.18,0.765-0.688,1.486-0.435,2.36c-0.436,0.44,0,1.056-0.399,1.492
    c-0.109,0.327,0,0.617,0,0.914c-0.943,0.43,0.074,1.409-0.689,1.958c0.289,0.255-0.183,0.47,0.109,0.689
    c-0.801,0.433-0.038,1.38-0.731,1.853c0.153,1.054-0.507,1.996-0.577,3.087c-0.547,0.657-0.365,1.634-0.837,2.329
    c0.036,0.145,0.107,0.324,0.33,0.251c0.835,0.692-0.546,0.111-0.546,0.838c-0.183,0.252-0.183,0.471,0,0.729
    c-0.62,0.4-0.655,1.125-0.765,1.775c-0.363,1.016-0.765,1.996-1.163,3.016c-0.615,0.692,0,1.926-0.908,2.402
    c-0.145,0.725-0.617,1.341-0.688,2.104c-0.583,0.4-0.512,1.165-0.835,1.673c-0.11,0.291-0.472,0.615-0.184,0.873
    c-0.219,0.398-0.652,0.688-0.616,1.2c-0.472,0.469-0.621,1.194-0.763,1.851c-0.837,0.435-0.182,1.419-0.872,1.963
    c-0.724,0.145-0.544,1.019-1.017,1.454c-0.034,0.364-0.582,1.052,0.144,1.125c-0.07,0.074-0.107,0.074-0.178,0.107
    c0,0.072-0.039,0.218,0.034,0.291c0.4,0.293,0.4,1.167,1.124,0.91c0.075,0.546,0.658,0.218,0.985,0.329
    c0.324,0.398,0.722-0.072,1.16,0.105c0.184,0.075,0.111,0.253,0.22,0.362c0.328,0.078,0.435-0.287,0.651-0.432
    c-0.106-0.507,0.364-0.655,0.437-1.054c0.255-0.254,0.507-0.584,0.874-0.799c-0.146-0.582,0.582-0.839,0.398-1.456
    c0.655-0.402,0.327-1.383,1.163-1.454c0.074-0.4-0.69-0.833-0.034-1.126c0.434-0.327-0.327-0.691,0.144-0.983
    c0.255-0.216,0.471,0.075,0.728,0.113c0.399-0.144,0.107-0.652,0.253-0.91c0.507-0.361,0.034-0.946,0.363-1.379
    c0.8,0,0.328-1.021,0.764-1.343c-0.257-0.693,0.835-0.512,0.652-1.167c-0.508-0.431,0.472-0.546,0.146-1.05
    c0.582-0.076,0.037-0.767,0.582-0.835c0.472-0.259,0-0.728-0.11-1.06c0.11-0.36,0.618-0.146,0.765-0.506
    c0.073-0.107,0-0.22-0.111-0.291c-0.252-0.221-0.252,0.146-0.508,0.109c-0.181-0.075-0.074-0.255-0.108-0.402
    c0.108-0.36,0.508-0.181,0.728-0.324c0.289-0.402,0.472-0.764,0.472-1.308c0.402-0.326-0.112-0.943,0.437-1.095
    c0.107-0.325,0.325-0.576,0.214-1.016c0.074-0.143,0.22-0.143,0.33-0.07l0.07-0.219c-0.07-0.473-0.615-0.327-0.836-0.62
    c0.109-0.144,0.256-0.251,0.472-0.215c0.584,0.034,0-0.582,0.584-0.582c-0.436-0.872,0.834-1.089,0.508-1.96
    c0.254-0.223-0.146-0.657,0.289-0.803c-0.472-0.438,0.365-0.324,0.365-0.653c-0.072-0.215,0.073-0.801-0.365-0.835
    c-0.107-0.476,0.508-0.366,0.764-0.581c0-0.107,0.036-0.257-0.036-0.329c0.29-0.685-0.51-0.543-0.655-1.053
    c0.293-0.436,0.548-0.759,1.128-0.759c0.179-0.221-0.215-0.295-0.215-0.478c-0.147-0.287,0.287-0.179,0.394-0.325
    c-0.068-0.327,0.366-0.655-0.068-0.869c-0.143-0.291,0.109-0.44,0.325-0.549c-0.181-0.361-0.581,0-0.798-0.289
    c-0.074-0.255,0.147-0.51,0.18-0.761c0.182,0,0.182,0.217,0.293,0.291c0.182,0.036,0.217-0.113,0.325-0.183
    c0.657,0,0-0.763,0.545-1.018c0.071-0.257,0.291-0.62,0-0.835c-0.4,0-0.837-0.184-1.088-0.438c0.286-0.47,0.873-0.181,1.236-0.217
    c0.107-0.186,0.253-0.365,0.144-0.582c0.364-0.33-0.437-0.291-0.106-0.651c0.798-0.221,0.145-0.872,0.58-1.239
    c-0.256-0.04-0.51-0.253-0.617-0.472c0.107-0.51,0.507-0.181,0.796-0.217c0.478-0.691-0.759-0.653-0.582-1.235
    c0.186-0.183,0.474-0.183,0.692-0.04c0.254-0.285,0.4-0.686,0.254-1.088c0.221-0.436,0.113-0.835,0.291-1.307
    c0.144-0.363,0-0.767,0.292-1.02c-0.036-0.366,0.071-0.908-0.255-1.193c0.362-0.51,0.727-1.207,0.616-1.894
    c0.618-0.58,0-1.382,0.511-2.032c-0.548-0.512,0.579-0.547,0.252-1.054c-0.108-0.91,0.584-1.671,0.257-2.621
    c0.287-0.072,0.033-0.472,0.179-0.691c-0.436-0.395,0.329-0.647-0.179-1.016c0.107-0.112,0.25-0.182,0.364-0.255
    c0.035-0.179-0.037-0.323-0.184-0.434c-0.036-0.072-0.072-0.253,0.036-0.292c0.763,0,0.183-0.979,0.543-1.415
    c-0.395-0.62,0.477-0.944,0-1.524c0.513-0.546-0.107-1.309,0.329-1.785c0-0.723,0.219-1.417,0.184-2.106
    c0.286-0.438-0.293-1.018,0.216-1.418c-0.037-0.797-0.107-1.743,0.222-2.542c-0.186-0.291,0.107-0.801-0.107-1.165
    c0.031-0.289,0.249-0.651,0.107-0.871c-0.107-0.291-0.152-0.578,0.142-0.801C125.848,42.04,125.995,41.459,126.068,40.987z
     M32.644,42.989c-0.328,0.285-0.504,0.761-0.943,0.833c-0.291,0.255-0.071,0.799-0.507,0.871c-0.513,0.472-0.621,1.275-1.271,1.528
    c-0.619,0.908-1.49,1.67-2.072,2.544c-0.797,0.143-0.181,1.233-1.093,1.091c-0.286,0.104-0.286,0.396-0.393,0.612
    c-0.328,0.402-1.093,0.333-1.128,0.946c-0.549,0.946-1.527,1.091-2.108,1.962c-0.511,0.149-0.768,0.688-1.166,1.018
    c-0.511,0.438-0.98,0.91-1.596,1.239c-0.183,0.725-1.058,0.504-1.309,1.231c-0.472,0.295-0.835,0.729-1.344,0.946
    c-0.181,0.435-0.728,0.219-0.838,0.724c-0.506,0.147-0.36,0.767-0.941,0.767c-0.653,0.179-0.802,1.018-1.492,1.052
    c-0.145,1.167-1.673,0.185-1.711,1.347c-0.358,0.328-0.909,0.545-1.344,0.802c-0.217,0.438-0.801,0.361-1.05,0.765
    c-0.258,0.1-0.366-0.151-0.51-0.327c0.036-0.438-0.147-1.169,0.474-1.274c0.142-0.364-0.657-0.875,0-1.056
    c0.33-0.508,0.616-1.273,0.33-1.96c0.539-0.257-0.188-0.763,0.249-1.127c-0.075-0.255,0.184-0.583-0.216-0.619
    c0.034-0.325-0.185-0.944,0.324-1.09c0.257-0.217,0.257-0.727,0.182-1.089c-0.328-0.329,0.725-1.058-0.218-1.125
    c0.036-0.257,0.475-0.221,0.587-0.508c0-0.584-0.587-0.98-0.369-1.599c-0.106-0.728,0.545-0.219,0.652-0.799
    c0.186-0.765-0.543-1.309-0.215-1.966c0.074-1.014,0.288-1.962,0.401-2.902c0.323-0.512,0.109-1.058,0.365-1.6
    c-0.255-1.163,0.831-2.073,0.215-3.235c0.22-0.327,0.401-0.549,0.364-0.982c0.18-0.398,0.037-0.91,0.328-1.235l0.25-1.275
    c0.584,0.04,0.293-0.653,0.44-0.977c-0.365-0.185-0.252-0.8-0.217-1.091c0.254-0.253,0.071-0.618,0-0.873l-0.035-0.072
    c0.688-0.327,0.106-1.093,0.614-1.416l0.075,0.071c0.217-0.109,0.14-0.328,0.217-0.508c-0.145-0.038-0.326-0.111-0.292-0.257
    c-0.073-0.364,0.509-0.617,0.111-0.94c0.103,0,0.327-0.077,0.327-0.261c-0.037-0.07,0.036-0.07,0.071-0.105
    c0.075,0.036,0.039,0.147,0.144,0.219c0.148-0.438,0.221-1.02,0.076-1.42c-0.036-0.291,0.615-0.436,0.252-0.836
    c-0.107-0.146-0.107-0.435,0-0.578c0.328-0.072,0.073-0.44,0.186-0.583c0.758-0.655-0.218-1.561,0.357-2.325
    c-0.069-0.215-0.106-0.396,0.042-0.58c0.214-0.074,0.438,0.146,0.618-0.074c-0.109-0.363,0.214-0.763-0.146-1.018
    c0.181-0.725,0.108-1.56,0.582-2.111c0.069-0.612-0.109-1.339,0.472-1.777c0.032-0.402-0.181-1.091,0.436-1.233
    c0.473,0-0.036-0.365,0.072-0.585c0.254-0.217,0.106-0.69,0.437-0.761c0.291-0.653,0.508-1.345,0.832-1.998
    c0.262-0.801,1.06-1.235,1.345-1.998c0.33-0.402,0.839-0.364,1.24-0.619c0.401,0.038,0.616-0.439,1.052-0.402
    c0.218-0.433,0.619-0.215,0.874-0.689c0.252,0.329,0.399-0.253,0.687,0.041c0.474-0.329,1.126,0.144,1.533-0.294
    c0.758,0.219,1.558,0.363,2.358,0.544c0.542-0.725,1.126,0.149,1.67,0.219c0.219,0.508,0.616,0,0.948,0.108
    c0.36,0.801,1.235,0.33,1.634,1.093c0.943-0.219,1.344,0.875,2.104,1.164c0.617,0.36,0.836,1.235,1.565,1.342
    c0.213,0.506,0.362,1.128,0.872,1.418c0.364,0.982,1.162,1.815,1.271,2.906c0.764,1.6,0.836,3.448,1.202,5.231
    c-0.221,0.801,0.469,1.817-0.074,2.651c-0.036,1.562-0.585,2.871-0.875,4.289c-0.361,0.474-0.215,1.199-0.726,1.603
    c-0.325,0.542-0.292,1.195-0.76,1.665c0.178,0.582-0.509,0.655-0.509,1.164c-0.399,0.802-1.166,1.418-1.24,2.33
    c-0.725,0.54-0.906,1.56-1.634,2.142C33.662,42.08,32.644,42.224,32.644,42.989z M82.827,40.696
    c-0.183,0.108-0.325,0.221-0.435,0.435c0.326,0.651-0.692,0.693-0.473,1.307c-0.402,0.185-0.289,0.695-0.759,0.695
    c-0.332,0.617-0.873,0.982-0.987,1.669c-0.508,0.329-0.689,0.871-0.982,1.345v0.182c-0.504,0.472-0.761,1.016-1.309,1.454
    c0,0.508-0.614,0.615-0.725,1.016c-0.179,0.795-1.345,0.982-1.196,1.817c-0.437,0.107-0.874,0.474-0.984,0.875
    c-0.829,0.619-1.269,1.527-2.072,2.107c-0.36,0.4-0.763,0.761-1.161,1.054c-0.253,0.869-1.272,0.653-1.707,1.378
    c-0.073,0.072-0.181,0.072-0.254,0c-0.115-0.107-0.146-0.325-0.364-0.325c0.183-0.221,0.545-0.331,0.802-0.291
    c-0.078-0.725,0.436-1.239,0.289-2c0.071-0.255,0.437-0.143,0.437-0.436c-0.217-0.689,0.583-1.16,0.618-1.817
    c0.324-0.438,0.324-1.016,0.763-1.305c0-0.44,0.434-0.695,0.654-1.091c0.873-1.311,2.071-2.327,3.088-3.633
    c0.437-0.293,0.836-0.622,1.273-0.98c0.328,0.032,0.291-0.329,0.472-0.514c0.435-0.143,0.728-0.725,1.198-0.759
    c0.288-0.544,0.944-0.544,1.16-1.096c0.549,0.113,0.621-0.502,0.8-0.795c0.872,0.144,1.453-0.619,1.963-1.125
    C83.119,40.114,82.863,40.405,82.827,40.696z"/>
</g>
</svg>
