<?xml version="1.0" encoding="utf-8"?>
<!-- Generator: Adobe Illustrator 17.0.0, SVG Export Plug-In . SVG Version: 6.00 Build 0)  -->
<!DOCTYPE svg PUBLIC "-//W3C//DTD SVG 1.1//EN" "http://www.w3.org/Graphics/SVG/1.1/DTD/svg11.dtd">
<svg version="1.1" id="Layer_1" xmlns="http://www.w3.org/2000/svg" xmlns:xlink="http://www.w3.org/1999/xlink" x="0px" y="0px"
	 width="24px" height="24px" viewBox="0 0 24 24" enable-background="new 0 0 24 24" xml:space="preserve">
<g>
	<g>
		<path d="M14.968,5.985L3.008,17.943l3.011,3.009l11.96-11.959L14.968,5.985z M12.139,10.144l2.828-2.829l1.68,1.678l-2.829,2.832
			L12.139,10.144z M21.5,3.489l-0.998-0.998l-2.995,2.997l0.998,0.997L21.5,3.489z M17.473,12.473l2.994,2.993l0.998-0.995
			l-2.994-2.995L17.473,12.473z M12.492,5.488L9.497,2.491L8.499,3.489l2.995,2.996L12.492,5.488z M15.684,0h-1.412v4.235h1.412V0z
			 M19.765,9.726H24l-0.001-1.41h-4.235L19.765,9.726z"/>
	</g>
</g>
</svg>
