<?xml version="1.0" encoding="utf-8"?>
<!-- Generator: Adobe Illustrator 16.0.0, SVG Export Plug-In . SVG Version: 6.00 Build 0)  -->
<!DOCTYPE svg PUBLIC "-//W3C//DTD SVG 1.1//EN" "http://www.w3.org/Graphics/SVG/1.1/DTD/svg11.dtd">
<svg version="1.1" id="Layer_1" xmlns="http://www.w3.org/2000/svg" xmlns:xlink="http://www.w3.org/1999/xlink" x="0px" y="0px"
	 width="24px" height="24px" viewBox="0 0 24 24" enable-background="new 0 0 24 24" xml:space="preserve">
<g>
	<path d="M23.211,21.06l-7.045-7.045c1.021-1.447,1.623-3.212,1.623-5.119C17.789,3.983,13.808,0,8.895,0C3.983,0,0,3.983,0,8.896
		c0,4.912,3.983,8.895,8.895,8.895c1.917,0,3.689-0.608,5.141-1.638l7.042,7.041c0.646,0.646,1.654,0.695,2.241,0.107
		C23.905,22.715,23.857,21.706,23.211,21.06z M2.966,8.896c0-3.269,2.66-5.929,5.929-5.929s5.928,2.66,5.928,5.929
		c0,3.269-2.659,5.928-5.928,5.928S2.966,12.164,2.966,8.896z"/>
</g>
<rect x="8.5" y="5.5" width="1" height="7"/>
<rect x="5.5" y="8.5" width="7" height="1"/>
</svg>
